<svg id="Layer_1" data-name="Layer 1" xmlns="http://www.w3.org/2000/svg" viewBox="0 0 109.19 15.33"><defs><style>.cls-1{fill:#e65c52;}.cls-2{fill:#3e4e5d;}.cls-3{fill:#445463;}.cls-4{fill:#415160;}.cls-5{fill:#3d4d5d;}.cls-6{fill:#40505f;}.cls-7{fill:#3a4b5b;}.cls-8{fill:#3d4e5d;}.cls-9{fill:#384656;}.cls-10{fill:#505d6b;}.cls-11{fill:#644351;}.cls-12{fill:#e5675f;}.cls-13{fill:#eff1f2;}.cls-14{fill:#d44b44;}</style></defs><title>Untitled-1</title><path class="cls-1" d="M522.66,420.13c-.87,2.27,1.17,5.05-2,6.7a36.09,36.09,0,0,1-.8-12.62c.15-1,.46-1.65,1.59-1.88s1.72.54,2,1.35c1.11,2.82,2.1,5.68,3.16,8.52a1.58,1.58,0,0,0,1.27,1.23c.21-1.64.41-3.26.63-4.87.15-1,.31-2,.51-3a1.35,1.35,0,0,1,1.6-1.07c.8.11.65.93.59,1.49-.36,3.21-.73,6.42-1.18,9.61-.33,2.35-1.6,1.86-2.92.83C525.08,424.84,524.58,422.15,522.66,420.13Z" transform="translate(-504.81 -412.28)"/><path class="cls-2" d="M570.77,421.85c0-.8,0-1.61,0-2.42,0-1.24.32-1.41,1.72-1.57,2.49-.3,4.91.82,7.4,0a2.6,2.6,0,0,1,3.75,2.3,43.1,43.1,0,0,1,.11,4.83c0,.82-.26,1.34-1.18,1.39-1.22.07-1.24-.73-1.24-1.58,0-1,0-2,0-3s0-2-1.28-2-1.59,1-1.64,2.09,0,2.22,0,3.33c0,.65-.16,1.2-1,1.21s-1.39-.23-1.4-1.17c0-1.21,0-2.42,0-3.63,0-.82,0-1.73-1.09-1.85s-1.5.82-1.62,1.75-.07,1.81-.15,2.71.44,2.24-1.25,2.17c-1.43-.05-1-1.22-1.07-2.05S570.77,422.66,570.77,421.85Z" transform="translate(-504.81 -412.28)"/><path class="cls-3" d="M553.3,418c1.81-.31,3.74-1,4.78.82,1.2,2.11.61,4.55.52,6.85,0,.53-.66.68-1.2.68-.77,0-1.08-.41-1.08-1.13,0-1.32,0-2.64-.07-3.95,0-.84-.38-1.61-1.44-1.58s-1.42.69-1.48,1.59c-.08,1.21-.1,2.42-.13,3.63,0,.79-.2,1.39-1.15,1.44s-1.27-.42-1.27-1.27c0-3.14,0-6.28,0-9.42,0-.85.3-1.32,1.24-1.27.74,0,1.12.36,1.16,1.08S553.26,417.07,553.3,418Z" transform="translate(-504.81 -412.28)"/><path class="cls-4" d="M568.49,420.54v1.22c0,4.47-.92,5.37-5.17,4.65-2.57-.43-2.87-2.55-2.81-4.67s.83-4.29,3.42-4c1.94.21,2.29-.35,2.14-2-.07-.79.15-1.34,1.14-1.34,1.15,0,1.29.7,1.28,1.59C568.47,417.51,568.48,419,568.49,420.54Zm-2.31,1.58c0-1.37-.29-2.48-1.77-2.4s-1.48,1.44-1.48,2.5.18,2.41,1.73,2.26S566.24,423.16,566.18,422.12Z" transform="translate(-504.81 -412.28)"/><path class="cls-5" d="M603.37,422c0,.91,0,1.82,0,2.73,0,1.21-.25,2.16-1.7,1.34-.47-.27-.68-.49-1.22-.18-1.7.95-3.49,1.05-4.44-.86-1.06-2.13-.66-4.54-.31-6.82.07-.5.83-.43,1.34-.39s.82.47.83,1c0,1.32,0,2.63,0,3.95,0,.88.41,1.63,1.39,1.65a1.47,1.47,0,0,0,1.56-1.51c.09-1.11.12-2.22.12-3.33s0-1.88,1.35-1.82,1,1,1,1.78S603.37,421.17,603.37,422Z" transform="translate(-504.81 -412.28)"/><path class="cls-6" d="M543.6,420.65c2.06-1,2.63-3.68,5.16-2.72.13,1.83-2.94,2.14-2.17,4.06a22.09,22.09,0,0,0,2.75,4c-2.08,1-2.89-.27-3.76-1.52-.33-.47-.58-1.21-1.29-1.1s-.69.89-.68,1.48c0,1-.29,1.57-1.38,1.51-1.29-.07-1-1.05-1-1.79,0-2.83,0-5.67,0-8.5,0-.8-.12-1.67,1.16-1.64s1.23.8,1.23,1.65Z" transform="translate(-504.81 -412.28)"/><path class="cls-7" d="M608.13,421c2-1.31,2.61-3.9,5.87-2.85-5.12,2.74-1.88,5.24,0,7.77-2.11,1.07-2.89-.25-3.78-1.45-.38-.5-.53-1.47-1.46-1.19-.71.22-.63,1-.61,1.56,0,.93-.15,1.58-1.31,1.5s-1.1-.94-1.1-1.74c0-2.83,0-5.65,0-8.48,0-.8-.1-1.63,1.12-1.7,1.5-.09,1.27.94,1.28,1.81C608.14,417.71,608.13,419.19,608.13,421Z" transform="translate(-504.81 -412.28)"/><path class="cls-8" d="M534,423.1c.77,1.85,2.19,1.73,3.71,1.31.5-.15,1-.35,1.08.42a1.52,1.52,0,0,1-.33,1.07c-1.19,1.19-4.85.6-6.09-.94-1.54-1.93-1-5.53.94-6.75a4,4,0,0,1,5.55,1.28c1.14,2.12.59,3.06-1.8,3.18C536.11,422.71,535.08,422.37,534,423.1Z" transform="translate(-504.81 -412.28)"/><path class="cls-8" d="M593.67,422c0,2.65-1.48,4.36-3.88,4.44s-4.22-1.7-4.25-4.42,1.44-4.34,3.88-4.43S593.65,419.29,593.67,422Zm-2.4,0c0-1.14-.13-2.36-1.63-2.39s-1.71,1.12-1.69,2.3.09,2.62,1.76,2.56C591.16,424.45,591.22,423.16,591.27,422Z" transform="translate(-504.81 -412.28)"/><path class="cls-9" d="M511.63,424.93c-.63,2.26-2.16,3.16-4.33,2.44s-2.95-2.65-2.18-4.86c.63-1.8,1.49-3.51,2.27-5.24.86-1.92,1.51-.72,2.17.16v1.13c-1.06,2.5-1,4.63,2,5.74Z" transform="translate(-504.81 -412.28)"/><path class="cls-10" d="M514.52,415.54c.21-.63.66-.85,1-.26a20,20,0,0,1,3,6.89,3.34,3.34,0,0,1-1.91,3.77,3.25,3.25,0,0,1-4.31-1c3.94-2.12,4.27-3.06,2.63-7.4A13.16,13.16,0,0,1,514.52,415.54Z" transform="translate(-504.81 -412.28)"/><path class="cls-11" d="M514.52,415.54a13.16,13.16,0,0,0,.43,2c1.64,4.34,1.31,5.28-2.63,7.4l-.69,0c0-.21-.08-.42-.11-.63,0-1.05.06-2.09.1-3.13l2.4-5.53A1.71,1.71,0,0,0,514.52,415.54Z" transform="translate(-504.81 -412.28)"/><path class="cls-12" d="M514,415.64l-2.4,5.53-2.06-2.61v-1.13c.88-1.54,1.76-3.09,2.68-4.69A6.9,6.9,0,0,1,514,415.64Z" transform="translate(-504.81 -412.28)"/><path class="cls-13" d="M566.18,422.12c.06,1-.09,2.23-1.52,2.36s-1.74-1.14-1.73-2.26-.09-2.42,1.48-2.5S566.18,420.75,566.18,422.12Z" transform="translate(-504.81 -412.28)"/><path class="cls-13" d="M591.27,422c0,1.13-.11,2.42-1.56,2.47-1.67.06-1.74-1.32-1.76-2.56s.2-2.33,1.69-2.3S591.23,420.89,591.27,422Z" transform="translate(-504.81 -412.28)"/><path class="cls-14" d="M509.56,418.56l2.06,2.61c0,1-.07,2.08-.1,3.13C508.52,423.19,508.5,421.06,509.56,418.56Z" transform="translate(-504.81 -412.28)"/></svg>